<svg width="106" height="102" viewBox="0 0 106 102" fill="none" xmlns="http://www.w3.org/2000/svg">
<path fill-rule="evenodd" clip-rule="evenodd" d="M1.30276 1.01572C-0.42824 2.74672 -0.437243 79.8937 1.29376 81.6247C2.13976 82.4707 7.89376 82.8247 20.7938 82.8247H39.0938V91.8557C39.0938 98.6067 39.4418 101.021 40.4718 101.417C41.2298 101.708 48.5428 97.7557 56.7218 92.6347L71.5938 83.3247L88.5938 82.8247L105.594 82.3247V41.3247V0.324714L54.0528 0.0657117C14.7968 -0.131288 2.22376 0.0947163 1.30276 1.01572ZM101.094 41.3247V76.8247H86.7908H72.4868L58.6808 85.3247C51.0878 89.9997 44.6998 93.8247 44.4848 93.8247C44.2698 93.8247 44.0938 90.5397 44.0938 86.5247C44.0938 82.1807 43.6078 78.7387 42.8938 78.0247C42.0508 77.1817 36.4048 76.8247 23.8938 76.8247H6.09376V41.3247V5.82471H53.5938H101.094V41.3247ZM45.0448 13.1317C22.6118 19.4527 14.7088 46.3007 30.2688 63.3257C36.5998 70.2527 43.2118 73.1817 52.5938 73.2137C73.6958 73.2867 88.3528 52.6167 81.4878 32.4677C79.3268 26.1247 71.4548 17.6567 65.2308 14.9787C58.8898 12.2507 50.7978 11.5107 45.0448 13.1317ZM58.2928 20.5747C60.9448 23.4087 64.5308 29.7217 63.8658 30.3857C62.8978 31.3537 51.6878 32.0047 46.7018 31.3817L41.1258 30.6847L42.6238 27.0047C44.6238 22.0907 49.4098 17.8247 52.9228 17.8247C54.6838 17.8247 56.6728 18.8437 58.2928 20.5747ZM38.6828 22.6807C38.3918 23.1517 37.6828 24.7757 37.1068 26.2897C36.2048 28.6617 35.8408 28.8597 34.4708 27.7227C33.0458 26.5397 33.1558 26.1677 35.5438 24.1147C38.2648 21.7737 39.6278 21.1507 38.6828 22.6807ZM70.1428 24.3777C72.1348 26.4967 72.2958 27.0817 71.0968 27.8227C70.3018 28.3137 69.5838 28.6277 69.4998 28.5207C69.4168 28.4127 68.6048 26.8617 67.6948 25.0747C65.7148 21.1807 66.8388 20.8597 70.1428 24.3777ZM33.0058 32.7487C34.0398 33.4037 34.4408 36.0627 34.5058 42.6877C34.5898 51.2827 34.4758 51.7857 32.2148 52.8157C29.4458 54.0767 29.7098 54.2687 28.2418 49.9257C26.7778 45.5927 26.7818 40.5987 28.2518 35.6907C29.4258 31.7727 30.4558 31.1347 33.0058 32.7487ZM77.0408 35.5747C77.6138 37.6377 78.0828 40.8997 78.0828 42.8247C78.0828 46.2877 76.3778 53.8247 75.5938 53.8247C75.3708 53.8247 74.1538 53.3537 72.8908 52.7787C70.7188 51.7887 70.6028 51.2357 70.7628 42.5697C70.9068 34.7117 71.1918 33.3057 72.7628 32.6867C75.7418 31.5127 75.9528 31.6557 77.0408 35.5747ZM65.7068 39.5747C66.0418 41.3617 66.0418 44.2877 65.7068 46.0747L65.0968 49.3247H52.6598H40.2228L39.6128 46.0747C39.2778 44.2877 39.2778 41.3617 39.6128 39.5747L40.2228 36.3247H52.6598H65.0968L65.7068 39.5747ZM63.7128 55.1107C64.0828 55.4807 63.2908 57.9297 61.9518 60.5537C57.9618 68.3757 50.7028 70.4677 46.4028 65.0357C44.9598 63.2117 41.0938 56.2207 41.0938 55.4337C41.0938 53.9407 62.2408 53.6387 63.7128 55.1107ZM37.8968 61.1057C38.9818 63.6577 38.9288 63.8067 37.2548 62.9107C36.2508 62.3737 34.8198 61.1997 34.0758 60.3027C32.9338 58.9277 32.9458 58.5347 34.1498 57.7897C35.7698 56.7887 36.2358 57.2017 37.8968 61.1057ZM72.0938 58.7577C72.0938 59.1527 70.9688 60.5327 69.5938 61.8247C66.9178 64.3387 66.3988 63.4437 68.2178 59.4507C69.2168 57.2587 72.0938 56.7447 72.0938 58.7577Z" fill="white"/>
</svg>
